<svg xmlns="http://www.w3.org/2000/svg" viewBox="95 425 240 240">
  <path fill="#184377" d="M268.4,487.3c-23.5-40.9-59.3-51.3-59.3-51.3,0,0-35.9,10.4-59.4,51.3-23.5,41-25.3,70.4-24.8,91.1.4,20.7,7.4,58,37.7,80.5,14.3,10.6,31.7,15.5,46.5,15.5s32.2-4.9,46.5-15.5c30.3-22.5,37.3-59.8,37.7-80.5.5-20.7-1.4-50.2-24.8-91.1ZM249.7,498.5c12.6-.2,15.1,9.9,15.2,12.9.2,8.5-8,12.9-11.3,13.3-6.7.9-11.6,2.3-15.9,5.6-4.2,3.3-7,10.2-7.5,14.6-.3,2.8-.6,7.3.9,12.3,1.2,3.8,4.8,12.4,4.5,22.4-.3,7.9-5,14.4-9.4,18-4.8,3.9-4.3,7.1-4.4,6.6-1.7-6.9-9.7-9.9-9.7-9.9,0,0,2.1-.1,3.5-.8,2-.9,5.1-3.1,7.3-6.8,2.3-4,3.3-8.7,3.4-13,.2-9.4-3.6-17.6-5.9-24-2.3-6.4-3.2-15.4-3.2-20.5s3.2-16.4,11-22.5c8.8-7,17.9-8.2,21.4-8.3ZM221,614.4c-.2,6.5-3.3,10.5-5.5,12.3-4.9,4.2-6.3,8.1-6.5,8.1s-1.3-3.7-6.5-8.1c-2.1-1.8-5.2-5.8-5.4-12.3-.4-12.9,11-17.4,11.9-17.7,1,.4,12.4,4.8,11.9,17.7ZM183.2,482.8c1.5-1.5,7.3-3,12.2-.5,2.8,1.4,5,4.9,5.7,6.2,1.7,3.3,1.4,7.2,1.7,7,.3-.2,1-3.2.9-4.4-.1-2.5-.7-6.6-3.1-10.4-1.9-3-3.8-6.6-3.7-13.2.3-13.7,12.1-17.6,12.1-17.6,0,0,11.8,3.9,12.1,17.6.1,6.7-1.8,10.2-3.7,13.2-2.4,3.8-2.9,7.9-3.1,10.4,0,1.2.6,4.2.9,4.4.4.2,0-3.6,1.7-7,.7-1.3,2.9-4.8,5.7-6.2,5-2.5,10.7-1,12.2.5,3.1,3.2,4.9,10.9-2.6,18-1.6,1.5-8.5,5.5-12.2,10.7-4.7,6.4-6,15.3-5.9,20.1.1,4.8.7,13.4,3,20,2.5,7,5.5,12.5,5.5,20.7s-2.3,19.3-13.5,19.3h-.2c-11.3,0-13.6-14.6-13.6-19.3,0-8.2,3-13.7,5.5-20.7,2.3-6.6,2.9-15.2,3-20,.1-4.8-1.2-13.8-5.8-20.1-3.8-5.2-10.7-9.1-12.3-10.7-7.5-7.1-5.8-14.7-2.6-18ZM168.3,498.5c3.5,0,12.6,1.3,21.4,8.3,7.8,6.2,11,17.5,11,22.5s-.9,14-3.2,20.5c-2.3,6.4-6.1,14.6-5.9,24,.1,4.4,1.1,9.1,3.4,13,2.1,3.7,5.2,5.9,7.3,6.8,1.4.6,3.4.8,3.4.8,0,0-7.9,3-9.7,9.9,0,.4.5-2.7-4.3-6.6-4.4-3.6-9.2-10.1-9.4-18-.3-10,3.3-18.6,4.5-22.4,1.6-5.1,1.3-9.6.9-12.3-.5-4.4-3.3-11.3-7.5-14.6-4.3-3.4-9.2-4.7-15.9-5.6-3.2-.4-11.5-4.8-11.3-13.3,0-3,2.5-13.1,15.2-12.9ZM142.2,565c1-2.8,1.8-6,2.1-14.6,0-2.1,1.5-15.8,11.3-20.1,3.5-1.6,9.8-3.4,18.7.9,6.3,3,7.9,7.6,8.8,10.1,1.5,4,1.2,9.1.5,13.2-1,5.2-3.4,11.2-4,16.5-.2,1.6-.4,7.3-.4,7.3-.3-.8-2-5.5-8.1-8.2-3.4-1.5-8.2-1-12.5-3.1-5.1-2.5-2.3-9.8.3-11.9,5.3-4.3,11-1.6,13.3-.4,1.6.9,3.5,3,3.9,3.9-.3-.8-1.3-4-2.3-5.5-1.5-2.4-3.7-5.1-9.9-5.3-2.7-.1-7.2,0-10.3,7-.8,1.8-1.5,10-4.4,13.4-2.8,3.5-6.5,6.5-11.7,4.3-.6-.2,3.5-4.5,4.6-7.5ZM155.9,610.4c-2.2,1.7-6.4,2.2-9.5.9-2.7-1.2-7.1-6.6-7.3-13.9-.2-7.3,3-17.7,9.4-22.1,7.5-5.1,16.2-4.3,20.8-2.5,4.2,1.7,8.5,6.6,9.7,10.5,1.4,4.4,2.9,7,5.2,10.4,2.4,3.5,6.2,5.7,8.5,10.5,1.1,2.2,1.3,9.2.9,8-.4-1.2-7.1-5.9-9.4-6.4-2.1-.5-7.4-1.4-14.3.1-2.1.5-4.8-.1-6.3-1.6-1.5-1.5-2.6-5.8-3.1-7.3-1.2-3.1-3.8-6.3-7.5-6.7-3.1-.4-5.2.8-6.2,2.1-1.6,2-1.5,5.1-.9,4.2.6-1,1.9-3.3,5.1-3.2,2.6,0,5.8,1.6,7.5,6.3.9,2.5,1.1,7.8-2.7,10.7ZM175.3,649.9c-.8-1.4-4.9-4.4-8.3-7.4-3.7-3.2-7.1-8.6-7.2-15.5,0-5.5,1.8-11.6,6.7-15.3,3.1-2.2,9.7-4.4,15.2-3,9,2.3,13.6,11.7,14.8,13.3,0,0,1.1,1.4.4.9-.7-.5-7.1-.4-9.7.4-3.7,1.1-7.6,4-9.4,6.8-5.5,8.3-3.2,17.7-2.5,19.7ZM234,653.7c-1.7,1-4.6.9-4.6.9,0,0,3.4-2.1,1.9-5.3-1.5-3.2-5.5-4.3-7.3-4.3s-4.2,1-5.3,2.2c-1.6,1.6-2.8,4.9-4.4,6.3-2.2,2.1-5.2,2.2-5.2,2.2h0s-3-.1-5.2-2.2c-1.6-1.5-2.8-4.7-4.4-6.3-1.2-1.2-3.5-2.2-5.3-2.2s-5.8,1-7.3,4.3c-1.5,3.3,1.9,5.3,1.9,5.3,0,0-2.9.1-4.6-.9-3.2-1.8-5.3-7.3-5.3-10.9,0-7.1,3.7-11.4,4.8-12.5,1.6-1.6,5.5-4.3,11.1-4.1,2.5.1,5.1,1,7.9,3.3,2.5,2.2,6.5,9.5,6.5,9.5,0,0,3.9-7.3,6.5-9.5,2.8-2.4,5.3-3.2,7.9-3.3,5.6-.2,9.5,2.6,11.1,4.1,1.2,1.1,4.8,5.4,4.8,12.5s-2.2,9.1-5.3,10.9ZM251.1,642.6c-3.4,2.9-7.5,6-8.3,7.3.7-2,2.9-11.4-2.5-19.6-1.9-2.9-5.7-5.8-9.4-6.8-2.6-.8-9-.9-9.7-.4-.7.5.4-.9.4-.9,1.1-1.6,5.8-11,14.8-13.3,5.4-1.4,12.1.7,15.1,3,5,3.7,6.8,9.8,6.7,15.3-.1,7-3.5,12.3-7.2,15.5ZM279,597.4c-.2,7.2-4.6,12.6-7.4,13.9-3.1,1.4-7.2.9-9.5-.9-3.7-2.8-3.6-8.2-2.7-10.7,1.7-4.7,4.9-6.2,7.5-6.3,3.2-.1,4.5,2.2,5.1,3.2.6,1,.7-2.1-.8-4.2-1-1.3-3.1-2.5-6.2-2.1-3.7.4-6.3,3.6-7.5,6.7-.6,1.4-1.6,5.7-3.1,7.3-1.5,1.5-4.2,2.1-6.3,1.6-6.8-1.5-12.1-.6-14.3-.1-2.3.5-9,5.2-9.4,6.4-.4,1.2-.2-5.8.9-8,2.3-4.8,6.2-6.9,8.5-10.5,2.3-3.5,3.8-6.1,5.2-10.4,1.2-3.9,5.5-8.8,9.7-10.5,4.6-1.8,13.4-2.6,20.8,2.5,6.4,4.4,9.6,14.8,9.4,22.1ZM280.4,572.5c-5.2,2.2-8.8-.8-11.7-4.3-2.8-3.5-3.6-11.7-4.3-13.4-3.1-7-7.6-7.2-10.3-7-6.2.2-8.4,2.9-10,5.3-.9,1.5-2,4.7-2.2,5.5.4-.8,2.2-3,3.9-3.9,2.2-1.2,7.9-3.9,13.3.4,2.7,2.1,5.4,9.4.3,11.9-4.3,2.1-9.2,1.6-12.6,3.1-6.1,2.7-7.8,7.4-8.1,8.2,0,0-.2-5.7-.4-7.3-.6-5.3-3-11.3-4-16.5-.8-4.1-1-9.2.5-13.2.9-2.5,2.5-7.1,8.8-10.1,9-4.2,15.3-2.4,18.8-.9,9.8,4.3,11.2,18,11.3,20.1.2,8.6,1,11.8,2.1,14.6,1.1,3,5.2,7.2,4.6,7.5Z"/>
</svg>
