<?xml version="1.0" encoding="UTF-8"?>
<svg id="Layer_1" data-name="Layer 1" xmlns="http://www.w3.org/2000/svg" viewBox="0 0 1350 1080">
  <defs>
    <style>
      .cls-1 {
        fill: #fff;
      }
    </style>
  </defs>
  <g>
    <path class="cls-1" d="M415.8,539.6l6.8-7.3,24.2-25c3.7-3.7,5.8-6,13.5-12.6h-18.7c-3.4,6.1-5.3,8-8.4,11l-32,33.9v-22.1c0-13,1.3-17.9,2.6-22.8h-16.4c1.9,6.4,3.3,12.7,3.3,26.3v47.9c0,13.2-2,20.2-3.3,25.2h17.5c-3.6-8.7-3.7-18.9-3.7-28.5v-24.4l9,9.4,22.4,24.5c10.5,11.6,11.5,15.1,12.6,19h21.2c-14.4-11.5-47.7-51.1-50.4-54.6Z"/>
    <path class="cls-1" d="M566.3,553.3l-24.6-59.3-27.9,55.8c-14.3,27.4-14.7,28.1-26.9,44.5h18.5c.5-6.6,2.1-11.8,9.5-26.7l5.6-11.2c15.9.1,23.6.3,35.6.7l6,14.4c1.7,4.2,4.1,10,4.1,17.1s0,1.9-.9,5.8h22.1c-5-7-6.6-9.8-7.6-11.4-2.5-4.2-10.8-22.9-13.5-29.6ZM524.7,546.5l14.8-31,13,32-27.8-1.1Z"/>
    <path class="cls-1" d="M666.5,546.9c7.3-4.2,15.5-9.9,15.5-23.7s-3.2-13.4-6.9-17.3c-4.5-4.9-15.5-11.1-22.6-11.1h-25.3c3.3,9.3,3.7,10.3,3.8,21.2l.5,48.9c-.3,19.8-.3,20.4-3.6,29.5h17.9c-3-8.2-3.7-20-3.7-29.9v-15.5l17.1,22c7.9,10.2,15.2,17,23.6,23.4h11.9c-20.6-21.6-27.4-30.7-36.1-42.7l7.9-4.7ZM641.9,523.1c0-12.2.4-17.3.5-21,4.4.1,11.1.4,17.9,4.9,7.3,4.9,10.1,12.8,10.1,19.3s-3.2,10.4-5.2,12.5c-4.4,4.4-14.9,7.1-23,8.9l-.3-24.6Z"/>
    <path class="cls-1" d="M738.4,494.8c3.3,8.2,4,10.5,4,22v56.9c0,8.5-.5,10.6-4.1,20.7h18.8c-3.3-9.8-3.7-13-3.8-18.3v-62.7c-.1-9.6.8-11.9,3.8-18.6h-18.7Z"/>
    <path class="cls-1" d="M921.1,494.8h-14.6c-1.6,3.2-2.7,5.5-9.6,13.3l-30.7,34.7-28.2-31.2c-7.8-8.7-9.9-13.5-11.4-16.7h-18.8c1.9,2,9.1,10.1,9.8,11,1.2,1.6,1,5.2,1,12.3l-.3,50.4c0,13.8-1.6,18-4.5,25.8h19.2c-2.6-5.7-4.6-10.2-4.5-30.6l.3-47.9c3.3,3,3.9,3.7,6.4,6.6l17.5,19.5c4.7,5.3,9.3,10.9,13.8,16.1,1.6-2.2,2-2.6,3.5-4.4l33-36.9.8,64.8c0,3.7-2.4,9.4-3.8,12.7h19.3c-4.4-8.5-4.6-12.7-4.6-16l-.7-47.6c-.1-5.7-.4-23.4.3-26.7.3-1.3,5.1-7.3,6.8-9.1Z"/>
    <path class="cls-1" d="M978.6,494.8c2.9,6.2,4,9.6,4.1,19.5l.4,51.3c.1,36-6.5,41.7-17.5,50.9l11.5-.9c14.2-11.1,15.5-18.9,16.1-29.1.3-3.8.5-21.8.5-27.4v-41.2c-.1-13.4,1.5-16.8,4.4-23.2h-19.6Z"/>
    <path class="cls-1" d="M1069.5,577.7l.7-29.3c11.5.6,14.3,1.2,24.1,5l7.7-13.1-13.9-.3h-18.1v-29l-.3-8.3c18.3.5,27.1,3.5,32.8,5.5l7.2-13.4h-54.7c2.9,6.5,4.1,14.9,4.1,22v54.5c0,11.6-1.8,15.7-5.2,23h51.7l9.1-17.2c-14.8,6.7-23.5,8.4-44.8,9-.5-2.7-.5-3.3-.4-8.3Z"/>
    <path class="cls-1" d="M1179.9,586.1c-.5-2.7-.5-3.3-.4-8.3l.7-29.3c11.5.6,14.3,1.2,24.1,5l7.7-13.1-13.9-.3h-18.1v-29l-.2-8.3c18.2.5,27.1,3.5,32.8,5.5l7.2-13.4h-54.7c2.9,6.5,4.1,14.9,4.1,22v54.5c0,11.6-1.9,15.7-5.2,23h51.7l9.1-17.2c-14.8,6.7-23.6,8.4-44.9,9Z"/>
  </g>
  <g>
    <path class="cls-1" d="M210.2,585.8s0,0,0,0t0,0"/>
    <path class="cls-1" d="M242.8,649.9c0,.1-.2.3-.2.4,0,.2,0,0,.2-.4Z"/>
    <path class="cls-1" d="M208.9,596.7s0,0,0,0c0,0,0,0,0,0h-.2Z"/>
    <path class="cls-1" d="M175.4,650.3c0,0-.1-.2-.2-.3.1.4.2.5.2.3Z"/>
    <path class="cls-1" d="M268.4,487.3c-23.5-40.9-59.3-51.3-59.3-51.3,0,0-35.9,10.4-59.4,51.3-23.5,41-25.3,70.4-24.8,91.1.4,20.7,7.4,58,37.7,80.5,14.3,10.6,31.7,15.5,46.5,15.5s32.2-4.9,46.5-15.5c30.3-22.5,37.3-59.8,37.7-80.5.5-20.7-1.4-50.2-24.8-91.1ZM249.7,498.5c12.6-.2,15.1,9.9,15.2,12.9.2,8.5-8,12.9-11.3,13.3-6.7.9-11.6,2.3-15.9,5.6-4.2,3.3-7,10.2-7.5,14.6-.3,2.8-.6,7.3.9,12.3,1.2,3.8,4.8,12.4,4.5,22.4-.3,7.9-5,14.4-9.4,18-4.8,3.9-4.3,7.1-4.4,6.6-1.7-6.9-9.7-9.9-9.7-9.9,0,0,2.1-.1,3.5-.8,2-.9,5.1-3.1,7.3-6.8,2.3-4,3.3-8.7,3.4-13,.2-9.4-3.6-17.6-5.9-24-2.3-6.4-3.2-15.4-3.2-20.5s3.2-16.4,11-22.5c8.8-7,17.9-8.2,21.4-8.3ZM221,614.4c-.2,6.5-3.3,10.5-5.5,12.3-4.9,4.2-6.3,8.1-6.5,8.1s-1.3-3.7-6.5-8.1c-2.1-1.8-5.2-5.8-5.4-12.3-.4-12.9,11-17.4,11.9-17.7,1,.4,12.4,4.8,11.9,17.7ZM183.2,482.8c1.5-1.5,7.3-3,12.2-.5,2.8,1.4,5,4.9,5.7,6.2,1.7,3.3,1.4,7.2,1.7,7,.3-.2,1-3.2.9-4.4-.1-2.5-.7-6.6-3.1-10.4-1.9-3-3.8-6.6-3.7-13.2.3-13.7,12.1-17.6,12.1-17.6,0,0,11.8,3.9,12.1,17.6.1,6.7-1.8,10.2-3.7,13.2-2.4,3.8-2.9,7.9-3.1,10.4,0,1.2.6,4.2.9,4.4.4.2,0-3.6,1.7-7,.7-1.3,2.9-4.8,5.7-6.2,5-2.5,10.7-1,12.2.5,3.1,3.2,4.9,10.9-2.6,18-1.6,1.5-8.5,5.5-12.2,10.7-4.7,6.4-6,15.3-5.9,20.1.1,4.8.7,13.4,3,20,2.5,7,5.5,12.5,5.5,20.7s-2.3,19.3-13.5,19.3h-.2c-11.3,0-13.6-14.6-13.6-19.3,0-8.2,3-13.7,5.5-20.7,2.3-6.6,2.9-15.2,3-20,.1-4.8-1.2-13.8-5.8-20.1-3.8-5.2-10.7-9.1-12.3-10.7-7.5-7.1-5.8-14.7-2.6-18ZM168.3,498.5c3.5,0,12.6,1.3,21.4,8.3,7.8,6.2,11,17.5,11,22.5s-.9,14-3.2,20.5c-2.3,6.4-6.1,14.6-5.9,24,.1,4.4,1.1,9.1,3.4,13,2.1,3.7,5.2,5.9,7.3,6.8,1.4.6,3.4.8,3.4.8,0,0-7.9,3-9.7,9.9,0,.4.5-2.7-4.3-6.6-4.4-3.6-9.2-10.1-9.4-18-.3-10,3.3-18.6,4.5-22.4,1.6-5.1,1.3-9.6.9-12.3-.5-4.4-3.3-11.3-7.5-14.6-4.3-3.4-9.2-4.7-15.9-5.6-3.2-.4-11.5-4.8-11.3-13.3,0-3,2.5-13.1,15.2-12.9ZM142.2,565c1-2.8,1.8-6,2.1-14.6,0-2.1,1.5-15.8,11.3-20.1,3.5-1.6,9.8-3.4,18.7.9,6.3,3,7.9,7.6,8.8,10.1,1.5,4,1.2,9.1.5,13.2-1,5.2-3.4,11.2-4,16.5-.2,1.6-.4,7.3-.4,7.3-.3-.8-2-5.5-8.1-8.2-3.4-1.5-8.2-1-12.5-3.1-5.1-2.5-2.3-9.8.3-11.9,5.3-4.3,11-1.6,13.3-.4,1.6.9,3.5,3,3.9,3.9-.3-.8-1.3-4-2.3-5.5-1.5-2.4-3.7-5.1-9.9-5.3-2.7-.1-7.2,0-10.3,7-.8,1.8-1.5,10-4.4,13.4-2.8,3.5-6.5,6.5-11.7,4.3-.6-.2,3.5-4.5,4.6-7.5ZM155.9,610.4c-2.2,1.7-6.4,2.2-9.5.9-2.7-1.2-7.1-6.6-7.3-13.9-.2-7.3,3-17.7,9.4-22.1,7.5-5.1,16.2-4.3,20.8-2.5,4.2,1.7,8.5,6.6,9.7,10.5,1.4,4.4,2.9,7,5.2,10.4,2.4,3.5,6.2,5.7,8.5,10.5,1.1,2.2,1.3,9.2.9,8-.4-1.2-7.1-5.9-9.4-6.4-2.1-.5-7.4-1.4-14.3.1-2.1.5-4.8-.1-6.3-1.6-1.5-1.5-2.6-5.8-3.1-7.3-1.2-3.1-3.8-6.3-7.5-6.7-3.1-.4-5.2.8-6.2,2.1-1.6,2-1.5,5.1-.9,4.2.6-1,1.9-3.3,5.1-3.2,2.6,0,5.8,1.6,7.5,6.3.9,2.5,1.1,7.8-2.7,10.7ZM175.3,649.9c-.8-1.4-4.9-4.4-8.3-7.4-3.7-3.2-7.1-8.6-7.2-15.5,0-5.5,1.8-11.6,6.7-15.3,3.1-2.2,9.7-4.4,15.2-3,9,2.3,13.6,11.7,14.8,13.3,0,0,1.1,1.4.4.9-.7-.5-7.1-.4-9.7.4-3.7,1.1-7.6,4-9.4,6.8-5.5,8.3-3.2,17.7-2.5,19.7ZM234,653.7c-1.7,1-4.6.9-4.6.9,0,0,3.4-2.1,1.9-5.3-1.5-3.2-5.5-4.3-7.3-4.3s-4.2,1-5.3,2.2c-1.6,1.6-2.8,4.9-4.4,6.3-2.2,2.1-5.2,2.2-5.2,2.2h0s-3-.1-5.2-2.2c-1.6-1.5-2.8-4.7-4.4-6.3-1.2-1.2-3.5-2.2-5.3-2.2s-5.8,1-7.3,4.3c-1.5,3.3,1.9,5.3,1.9,5.3,0,0-2.9.1-4.6-.9-3.2-1.8-5.3-7.3-5.3-10.9,0-7.1,3.7-11.4,4.8-12.5,1.6-1.6,5.5-4.3,11.1-4.1,2.5.1,5.1,1,7.9,3.3,2.5,2.2,6.5,9.5,6.5,9.5,0,0,3.9-7.3,6.5-9.5,2.8-2.4,5.3-3.2,7.9-3.3,5.6-.2,9.5,2.6,11.1,4.1,1.2,1.1,4.8,5.4,4.8,12.5s-2.2,9.1-5.3,10.9ZM251.1,642.6c-3.4,2.9-7.5,6-8.3,7.3.7-2,2.9-11.4-2.5-19.6-1.9-2.9-5.7-5.8-9.4-6.8-2.6-.8-9-.9-9.7-.4-.7.5.4-.9.4-.9,1.1-1.6,5.8-11,14.8-13.3,5.4-1.4,12.1.7,15.1,3,5,3.7,6.8,9.8,6.7,15.3-.1,7-3.5,12.3-7.2,15.5ZM279,597.4c-.2,7.2-4.6,12.6-7.4,13.9-3.1,1.4-7.2.9-9.5-.9-3.7-2.8-3.6-8.2-2.7-10.7,1.7-4.7,4.9-6.2,7.5-6.3,3.2-.1,4.5,2.2,5.1,3.2.6,1,.7-2.1-.8-4.2-1-1.3-3.1-2.5-6.2-2.1-3.7.4-6.3,3.6-7.5,6.7-.6,1.4-1.6,5.7-3.1,7.3-1.5,1.5-4.2,2.1-6.3,1.6-6.8-1.5-12.1-.6-14.3-.1-2.3.5-9,5.2-9.4,6.4-.4,1.2-.2-5.8.9-8,2.3-4.8,6.2-6.9,8.5-10.5,2.3-3.5,3.8-6.1,5.2-10.4,1.2-3.9,5.5-8.8,9.7-10.5,4.6-1.8,13.4-2.6,20.8,2.5,6.4,4.4,9.6,14.8,9.4,22.1ZM280.4,572.5c-5.2,2.2-8.8-.8-11.7-4.3-2.8-3.5-3.6-11.7-4.3-13.4-3.1-7-7.6-7.2-10.3-7-6.2.2-8.4,2.9-10,5.3-.9,1.5-2,4.7-2.2,5.5.4-.8,2.2-3,3.9-3.9,2.2-1.2,7.9-3.9,13.3.4,2.7,2.1,5.4,9.4.3,11.9-4.3,2.1-9.2,1.6-12.6,3.1-6.1,2.7-7.8,7.4-8.1,8.2,0,0-.2-5.7-.4-7.3-.6-5.3-3-11.3-4-16.5-.8-4.1-1-9.2.5-13.2.9-2.5,2.5-7.1,8.8-10.1,9-4.2,15.3-2.4,18.8-.9,9.8,4.3,11.2,18,11.3,20.1.2,8.6,1,11.8,2.1,14.6,1.1,3,5.2,7.2,4.6,7.5Z"/>
  </g>
  <g>
    <path class="cls-1" d="M1047.7,436.2v-30.2h21.6v4.4h-16.4v8.4h11.5v4.3h-11.5v8.7h16.6v4.4h-21.8Z"/>
    <path class="cls-1" d="M1085.4,436.7c-2.4,0-4.6-.4-6.7-1.2-2.1-.8-4.1-2-6-3.7l2.8-3.8c2,1.6,3.7,2.7,5.2,3.4,1.5.7,3.2,1,4.9,1s2.5-.2,3.5-.6c1-.4,1.8-1,2.4-1.7.6-.7.9-1.6.9-2.5s-.4-2.1-1.2-2.8c-.8-.7-2.2-1.2-4.2-1.5l-5.6-1c-2.6-.4-4.6-1.3-5.8-2.6-1.3-1.3-1.9-3-1.9-5s.5-3.4,1.4-4.8c.9-1.4,2.2-2.4,3.8-3.2,1.7-.8,3.6-1.1,5.9-1.1s4.4.3,6.5,1c2.1.7,3.9,1.6,5.6,2.9l-2.6,3.9c-1.5-1.2-3.1-2.1-4.7-2.6-1.6-.6-3.3-.9-5-.9s-2.3.2-3.2.6c-.9.4-1.6.9-2.1,1.5-.5.6-.8,1.4-.8,2.2s.4,1.9,1.1,2.5c.7.6,1.9,1,3.6,1.3l5.4.9c3,.5,5.3,1.4,6.8,2.8,1.5,1.4,2.2,3.2,2.2,5.5s-.5,3.5-1.6,4.9c-1,1.4-2.5,2.6-4.3,3.4-1.8.8-3.9,1.2-6.3,1.2Z"/>
    <path class="cls-1" d="M1109.6,436.2v-25.7h-10.1v-4.4h25.3v4.4h-10.1v25.7h-5.2Z"/>
    <path class="cls-1" d="M1142.6,436.2v-25.2l-5.3,2.3v-4.2l7.1-3.1h3v30.2h-4.7Z"/>
    <path class="cls-1" d="M1163.9,436.7c-2.2,0-4.1-.4-5.8-1.1-1.7-.7-3-1.8-4-3.1s-1.4-2.9-1.4-4.5.3-2.2.8-3.2c.5-1,1.3-1.8,2.3-2.6,1-.7,2.1-1.3,3.4-1.6-1.6-.5-2.9-1.4-3.9-2.6-1-1.2-1.5-2.6-1.5-4.1s.4-3,1.3-4.2c.9-1.3,2.1-2.2,3.6-3,1.5-.7,3.3-1.1,5.2-1.1s3.7.4,5.2,1.1c1.5.7,2.7,1.7,3.6,3,.9,1.3,1.3,2.6,1.3,4.2s-.5,2.9-1.5,4.1c-1,1.2-2.3,2.1-3.9,2.6,1.9.5,3.5,1.4,4.7,2.7,1.2,1.3,1.8,2.9,1.8,4.6s-.5,3.2-1.4,4.5c-.9,1.3-2.3,2.4-3.9,3.1-1.7.8-3.6,1.1-5.8,1.1ZM1163.9,432.8c1.3,0,2.4-.2,3.3-.7,1-.4,1.7-1.1,2.3-1.9.6-.8.8-1.7.8-2.7s-.3-1.9-.8-2.7c-.6-.8-1.3-1.4-2.3-1.9-1-.4-2.1-.7-3.3-.7s-2.3.2-3.3.7c-1,.4-1.7,1.1-2.3,1.9-.6.8-.8,1.7-.8,2.7s.3,1.9.8,2.7c.6.8,1.3,1.4,2.3,1.9,1,.4,2.1.7,3.3.7ZM1163.9,418.8c1,0,2-.2,2.8-.6s1.5-1,2-1.7c.5-.7.7-1.5.7-2.4s-.2-1.7-.7-2.4c-.5-.7-1.2-1.3-2-1.7-.8-.4-1.8-.6-2.8-.6s-2,.2-2.9.6c-.8.4-1.5,1-2,1.7-.5.7-.7,1.5-.7,2.4s.2,1.7.7,2.4c.5.7,1.1,1.3,2,1.7.8.4,1.8.6,2.8.6Z"/>
    <path class="cls-1" d="M1179.3,436.2v-3.4l12.4-12.9c.7-.8,1.3-1.5,1.7-2.1.4-.6.7-1.2.9-1.8.2-.6.3-1.2.3-1.9,0-1.3-.5-2.3-1.6-3.2-1-.8-2.4-1.3-4-1.3s-2.6.3-3.8.8c-1.2.6-2.5,1.5-4,2.9l-2.6-3.2c1.6-1.5,3.3-2.6,5.1-3.4,1.8-.8,3.6-1.2,5.5-1.2s3.7.4,5.2,1.1c1.5.7,2.6,1.7,3.5,2.9.8,1.2,1.3,2.7,1.3,4.3s-.1,1.9-.4,2.8c-.3.9-.7,1.7-1.3,2.6-.6.9-1.5,1.9-2.6,3l-9.6,10h14.4c0,0,0,4,0,4h-20.4Z"/>
    <path class="cls-1" d="M1213.8,436.7c-4.1,0-7.6-1.4-10.6-4.1l2.8-3.2c1.3,1.1,2.6,2,3.8,2.5,1.3.5,2.6.8,4.1.8s2.4-.2,3.4-.7,1.7-1.2,2.2-2.1c.5-.9.8-1.9.8-3.1,0-1.7-.6-3.1-1.8-4.1-1.2-1.1-2.8-1.6-4.7-1.6s-2,.1-2.9.4c-.9.3-2,.7-3,1.2l-3.3-1,.7-15.6h18.3v4.1h-14.2l-.4,8.7c1.1-.5,2.1-.9,3.1-1.1,1-.2,2-.3,3.1-.3,2,0,3.8.4,5.3,1.1,1.5.8,2.7,1.8,3.5,3.2.8,1.4,1.2,3,1.2,4.8s-.5,3.8-1.4,5.3c-.9,1.5-2.3,2.7-4,3.6-1.7.9-3.7,1.3-6,1.3Z"/>
  </g>
</svg>